<svg data-v-0dd9719b="" version="1.0" xmlns="http://www.w3.org/2000/svg" xmlns:xlink="http://www.w3.org/1999/xlink" width="100%" height="100%" viewBox="0 0 340.000000 250.000000" preserveAspectRatio="xMidYMid meet" color-interpolation-filters="sRGB" style="margin: auto;"> <rect data-v-0dd9719b="" x="0" y="0" width="100%" height="100%" fill="#fff" fill-opacity="1" class="background"></rect> <rect data-v-0dd9719b="" x="0" y="0" width="100%" height="100%" fill="url(#watermark)" fill-opacity="1" class="watermarklayer"></rect> <g data-v-0dd9719b="" fill="#333" class="icon-text-wrapper icon-svg-group iconsvg" transform="translate(77.44999694824219,93.5283870698487)"><g class="iconsvg-imagesvg" transform="translate(0,0)"><g><rect fill="#333" fill-opacity="0" stroke-width="2" x="0" y="0" width="60" height="62.94322521085981" class="image-rect"></rect> <svg x="0" y="0" width="60" height="62.94322521085981" filtersec="colorsb4619458661" class="image-svg-svg primary" style="overflow: visible;"><svg xmlns="http://www.w3.org/2000/svg" viewBox="-0.0009527206420898438 0.0028464198112487793 95.31793975830078 99.99372863769531"><path d="M28.32 28.9c-3.09-.5-5.36-.11-6.39 1.32-3 4.14 5.63 15.4 19.2 25.14s27 14.29 30 10.15c1-1.43.67-3.71-.79-6.48 5.31 6.5 7.6 12.08 5.53 15-3.83 5.35-21.15-.52-38.68-13.1S8.54 33.79 12.38 28.44c2.07-2.89 8.08-2.5 15.94.46z" fill="#333"></path><path d="M70.81 78.71c4.54.73 7.87.15 9.38-1.95 4.36-6.07-8.25-22.58-28.19-36.87S12.42 18.93 8.07 25c-1.51 2.1-1 5.44 1.15 9.5C1.43 25-1.93 16.79 1.11 12.56c5.63-7.84 31 .76 56.73 19.21s42 39.77 36.36 47.6c-3.04 4.24-11.86 3.63-23.39-.66z" fill="#ec1b23"></path><path d="M54.21 27.8c2.53-1.75 4.71-2.37 6.23-1.53 4.38 2.41 1.53 16-6.38 30.4S36.19 80.76 31.8 78.35c-1.51-.83-2.16-3-2-6.07-2 8-1.63 13.91 1.43 15.59 5.66 3.12 18.52-9.41 28.73-28s13.89-36.13 8.23-39.24c-3.1-1.63-8.27 1.23-13.98 7.17z" fill="#333"></path><path d="M38.75 88.82c-3.71 2.56-6.91 3.46-9.13 2.24-6.43-3.53-2.25-23.5 9.35-44.6s26.22-35.33 32.65-31.8c2.22 1.23 3.17 4.41 3 8.92C77.48 11.83 77 3.16 72.51.7c-8.3-4.57-27.16 13.81-42.13 41S10 94.74 18.31 99.3c4.48 2.47 12.06-1.77 20.44-10.48z" fill="#ec1b23"></path></svg></svg> <!----></g></g> <g transform="translate(67,5.241613388061523)"><g data-gra="path-name" fill-rule="" class="tp-name iconsvg-namesvg"><g transform="scale(1)"><g><path d="M10.72 5.66Q6.7 5.66 4.71 4.32 2.73 2.99 2.67 0.07L2.67 0.07Q2.67-0.58 3.38-0.58L3.38-0.58Q3.77-0.58 5.17-0.29 6.57 0 9.75 0L9.75 0Q17.16 0 23.17-2.05 29.19-4.09 32.63-7.41 36.08-10.72 36.08-14.43L36.08-14.43Q36.08-18.98 31.33-20.57 26.59-22.16 19.24-22.16L19.24-22.16 14.43-22.1Q13.46-18.79 12.71-15.99 11.96-13.2 11.38-11.12L11.38-11.12Q9.49-4.03 8.78-1.56L8.78-1.56Q6.83-1.56 5.4-2.6 3.97-3.64 3.97-5.13L3.97-5.13Q3.97-6.31 4.62-8.13L4.62-8.13 4.88-8.91 5.72-11.51Q12.94-34 18.07-43.94L18.07-43.94Q14.82-43.23 11.38-41.34L11.38-41.34Q11.05-41.21 10.46-40.92 9.88-40.63 9.62-40.63L9.62-40.63Q8.97-40.63 8-41.57 7.02-42.51 7.02-43.16L7.02-43.16Q11.51-44.98 15.05-45.89 18.59-46.8 23.4-46.8L23.4-46.8Q29.84-46.8 34.77-44.59 39.72-42.38 39.72-36.2L39.72-36.2Q39.72-31.2 35.78-28.24 31.85-25.29 26.13-23.92L26.13-23.92Q33.48-22.95 36.79-19.96 40.11-16.96 40.11-13.46L40.11-13.46Q40.11-7.54 35.2-3.19 30.29 1.17 23.37 3.41 16.45 5.66 10.72 5.66L10.72 5.66ZM15.08-24.57Q23.53-24.89 29.15-27.79 34.77-30.68 34.77-36.73L34.77-36.73Q34.77-44.52 22.55-44.52L22.55-44.52Q18.91-37.51 15.08-24.57L15.08-24.57ZM46.54 2.08Q43.88 2.08 42.67 0.33 41.47-1.43 41.47-4.03L41.47-4.03Q41.47-6.76 42.61-9.69 43.74-12.61 45.56-14.56 47.38-16.51 49.27-16.51L49.27-16.51Q50.05-16.51 51.28-15.99L51.28-15.99Q51.67-18.98 53.4-20.93 55.12-22.88 58.24-22.88L58.24-22.88Q60.84-22.88 62.08-21.42 63.31-19.96 63.31-17.62L63.31-17.62Q63.31-15.34 62.11-12.42 60.91-9.49 59.02-6.57L59.02-6.57Q59.8-6.17 60.84-6.17L60.84-6.17Q62.66-6.17 64.74-7.38 66.82-8.58 67.92-11.05L67.92-11.05 69.09-10.21Q67.73-7.08 65.42-5.46 63.12-3.83 60.64-3.83L60.64-3.83Q59.15-3.83 57.4-4.42L57.4-4.42Q54.99-1.56 52.13 0.26 49.27 2.08 46.54 2.08L46.54 2.08ZM56.81-7.93Q58.44-10.34 59.51-12.94 60.58-15.54 60.58-17.62L60.58-17.62Q60.58-20.48 58.76-20.48L58.76-20.48Q57.91-20.48 57.01-19.63 56.09-18.79 55.51-17.39 54.92-15.99 54.92-14.3L54.92-14.3Q54.92-12.8 55.45-10.89 55.97-8.97 56.81-7.93L56.81-7.93ZM48.88-1.24Q50.05-1.24 51.74-2.54 53.43-3.83 55.12-5.85L55.12-5.85Q51.41-9.1 51.22-15.41L51.22-15.41Q50.44-15.02 49.34-13 48.23-10.99 47.45-8.52 46.67-6.04 46.67-4.23L46.67-4.23Q46.67-1.24 48.88-1.24L48.88-1.24ZM73.78 3.64Q70.27 3.64 68.15 1.46 66.04-0.72 66.04-4.94L66.04-4.94Q66.04-9.1 68.15-13.07 70.27-17.03 73.65-19.5 77.03-21.97 80.47-21.97L80.47-21.97Q83.07-21.97 84.34-20.67 85.61-19.37 85.61-17.42L85.61-17.42Q85.61-15.47 84.66-13.81 83.72-12.16 82.36-12.16L82.36-12.16Q81.12-12.16 80.34-13.39L80.34-13.39Q81.12-13.91 81.77-15.21 82.42-16.51 82.42-18.27L82.42-18.27Q82.42-19.37 81.19-19.37L81.19-19.37Q79.11-19.37 76.7-16.9 74.3-14.43 72.67-10.92 71.05-7.41 71.05-4.55L71.05-4.55Q71.05-2.47 72.09-1.07 73.13 0.33 75.66 0.33L75.66 0.33Q78.13 0.33 80.83-1.1 83.53-2.54 85.87-5.17 88.21-7.8 89.57-11.25L89.57-11.25 90.87-10.08Q89.31-6.17 86.55-3.06 83.79 0.07 80.41 1.85 77.03 3.64 73.78 3.64L73.78 3.64ZM108.68 2.47Q106.15 2.47 104.39 0.42 102.64-1.63 101.79-4.49 100.95-7.35 100.95-9.62L100.95-9.62Q109.33-11.51 109.33-15.41L109.33-15.41Q109.33-16.57 108.58-17.29 107.84-18 106.47-18L106.47-18Q102.5-18 99.48-12.97 96.46-7.93 93.99-1.3L93.99-1.3Q93.28 0.65 92.63 1.33 91.98 2.02 90.74 2.02L90.74 2.02Q89.7 2.02 88.95 1.1 88.2 0.2 88.2-2.86L88.2-2.86Q88.2-10.34 92.04-20.64 95.88-30.94 100.81-38.68 105.75-46.41 108.36-46.41L108.36-46.41Q109.46-46.41 110.21-45.05 110.96-43.68 110.96-41.66L110.96-41.66Q110.96-38.74 109.23-34.94 107.51-31.14 104.42-27.63 101.34-24.12 97.5-21.84L97.5-21.84Q95.81-17.81 94.77-13.68 93.73-9.55 93.47-6.17L93.47-6.17Q100.49-22.3 107.9-22.3L107.9-22.3Q110.5-22.3 112.45-20.44 114.4-18.59 114.4-15.93L114.4-15.93Q114.4-13.52 112.78-11.8 111.15-10.08 108.94-9.2 106.73-8.32 105.04-8.26L105.04-8.26Q105.69-5.27 106.83-2.96 107.97-0.65 110.18-0.65L110.18-0.65Q112.52-0.65 115.12-3.74 117.72-6.83 119.86-11.57L119.86-11.57 120.77-10.46Q118.95-5.2 115.57-1.36 112.19 2.47 108.68 2.47L108.68 2.47ZM99.39-26.26Q102.57-29.05 105.2-32.99 107.84-36.92 107.9-40.3L107.9-40.3Q106.86-39.84 104.33-35.75 101.79-31.66 99.39-26.26L99.39-26.26Z" transform="translate(-2.6700000762939453, 46.79999923706055)"></path></g> <!----> <!----> <!----> <!----> <!----> <!----> <!----></g></g> <!----></g></g><defs v-gra="od"></defs></svg>